<svg width="20" height="20" viewBox="0 0 20 20" fill="none" xmlns="http://www.w3.org/2000/svg">
<path d="M10.0012 3.75065C6.31928 3.75065 3.33451 6.73542 3.33451 10.4173H5.83451C6.75499 10.4173 7.50118 11.1635 7.50118 12.084V16.2507C7.50118 17.1712 6.75499 17.9173 5.83451 17.9173H3.33451C2.41404 17.9173 1.66785 17.1712 1.66785 16.2507V10.4173C1.66785 5.81494 5.39881 2.08398 10.0012 2.08398C14.6035 2.08398 18.3345 5.81494 18.3345 10.4173V16.2507C18.3345 17.1712 17.5883 17.9173 16.6678 17.9173H14.1678C13.2473 17.9173 12.5012 17.1712 12.5012 16.2507V12.084C12.5012 11.1635 13.2473 10.4173 14.1678 10.4173H16.6678C16.6678 6.73542 13.6831 3.75065 10.0012 3.75065ZM3.33451 12.084V16.2507H5.83451V12.084H3.33451ZM14.1678 12.084V16.2507H16.6678V12.084H14.1678Z" fill="white"/>
</svg>
