<svg width="16" height="16" viewBox="0 0 16 16" fill="none" xmlns="http://www.w3.org/2000/svg">
<path d="M8.96932 11.9316H7.64795V10.6174H8.96932V11.9316Z" fill="#FAFAFA"/>
<path d="M8.68254 3.9726C9.67373 3.97279 10.345 4.37742 10.7158 4.95771C11.0543 5.48741 11.101 6.10194 11.0034 6.50062L11.0026 6.50206C10.8237 7.22638 10.2611 7.69827 9.52927 8.25934C9.27855 8.45166 9.13575 8.68939 9.05464 8.88597C9.0143 8.98383 8.99068 9.06826 8.97793 9.124C8.97391 9.14159 8.97133 9.15613 8.96932 9.16702V9.78218H7.64795V9.07811L7.65154 9.04298L7.65226 9.04227V9.03868C7.65246 9.03688 7.65271 9.03445 7.65297 9.03223C7.6535 9.0278 7.65433 9.02247 7.65512 9.01646C7.65672 9.00444 7.65868 8.98925 7.66158 8.97129C7.66745 8.93498 7.67635 8.88623 7.68954 8.82861C7.71581 8.71385 7.76029 8.55884 7.83293 8.38266C7.97791 8.03105 8.24382 7.58018 8.72484 7.21114C9.51482 6.60551 9.6679 6.39282 9.71927 6.18588C9.73583 6.11775 9.73517 5.87776 9.6024 5.66966C9.50161 5.51195 9.27584 5.29486 8.68254 5.29469C7.95891 5.29469 7.66298 5.54542 7.53396 5.70551C7.45927 5.79824 7.41678 5.89108 7.39343 5.9586C7.38593 5.9803 7.38116 5.9987 7.37766 6.01237V6.32927H6.05557V5.90984L6.06059 5.87185V5.86826C6.06059 5.86826 6.06112 5.86546 6.06131 5.86396C6.06169 5.86095 6.06224 5.85759 6.06274 5.85392C6.06377 5.84652 6.06471 5.83739 6.06633 5.82739C6.06956 5.80745 6.07437 5.78222 6.08067 5.75283C6.09329 5.69398 6.11346 5.61672 6.14448 5.52698C6.20634 5.34808 6.31516 5.11176 6.50511 4.87598C6.90564 4.37909 7.59329 3.9726 8.68254 3.9726Z" fill="#FAFAFA"/>
<path d="M13.8726 1.39941C14.2376 1.39941 14.5337 1.69553 14.5337 2.06046V13.8072C14.5337 14.1721 14.2376 14.4683 13.8726 14.4683H3.23073C2.8658 14.4683 2.56969 14.1721 2.56969 13.8072V12.5583H1.46484V11.2362H2.56969V8.94404H1.46484V7.62196H2.56969V5.3291H1.46484V4.00702H2.56969V2.06046C2.56969 1.69553 2.8658 1.39941 3.23073 1.39941H13.8726ZM3.89177 13.1462H13.2116V2.7215H3.89177V13.1462Z" fill="#FAFAFA"/>
</svg>
