<svg xmlns="http://www.w3.org/2000/svg" width="64" height="64" viewBox="0 0 64 64" role="img" aria-label="Bitegit">
  <defs>
    <linearGradient id="bg" x1="8" y1="6" x2="58" y2="58" gradientUnits="userSpaceOnUse">
      <stop stop-color="#00FFD6"/>
      <stop offset="0.58" stop-color="#00B4D8"/>
      <stop offset="1" stop-color="#1495FF"/>
    </linearGradient>
    <filter id="glow" x="-40%" y="-40%" width="180%" height="180%" color-interpolation-filters="sRGB">
      <feDropShadow dx="0" dy="0" stdDeviation="4" flood-color="#00D4FF" flood-opacity="0.65"/>
    </filter>
  </defs>
  <rect width="64" height="64" rx="18" fill="#020711"/>
  <path filter="url(#glow)" d="M17 14h20.5c8.2 0 13.2 4.1 13.2 10.6 0 4.1-2 7.1-5.8 8.7 4.7 1.4 7.1 4.8 7.1 9.5C52 50 46.6 54 37.8 54H17V14Zm12.2 15.8h6.5c2.6 0 4.1-1.2 4.1-3.3 0-2-1.5-3.1-4.1-3.1h-6.5v6.4Zm0 14.7h7.8c2.8 0 4.3-1.2 4.3-3.4s-1.5-3.5-4.3-3.5h-7.8v6.9Z" fill="url(#bg)"/>
</svg>
