<svg width="40" height="40" viewBox="0 0 40 40" fill="none" xmlns="http://www.w3.org/2000/svg">
<path d="M20 3.33325C29.2045 3.33343 36.666 10.7956 36.666 20.0002C36.6658 29.2047 29.2044 36.6661 20 36.6663C10.7954 36.6663 3.33318 29.2048 3.33301 20.0002C3.33301 10.7955 10.7953 3.33325 20 3.33325ZM18.4482 10.8333V13.6907H17.6221C15.4509 13.6907 13.6896 15.4512 13.6895 17.6223C13.6898 19.7933 15.451 21.553 17.6221 21.553H22.3799C22.8368 21.5532 23.207 21.9242 23.207 22.3811C23.2069 22.838 22.8367 23.2071 22.3799 23.2073H14.5176V26.3118H18.4482V29.1663H21.5518V26.3118H22.3799C24.5509 26.3116 26.3104 24.5521 26.3105 22.3811C26.3105 20.2101 24.5509 18.4497 22.3799 18.4495H17.6221C17.1652 18.4495 16.7933 18.0791 16.793 17.6223C16.7931 17.1654 17.1651 16.7942 17.6221 16.7942H25.3809V13.6907H21.5518V10.8333H18.4482Z" fill="#FAFAFA"/>
</svg>
