<svg width="40" height="40" viewBox="0 0 40 40" fill="none" xmlns="http://www.w3.org/2000/svg">
<path d="M29.1745 35.0046C25.9528 35.0046 23.3412 32.3929 23.3412 29.1712C23.3412 25.9496 25.9528 23.3379 29.1745 23.3379C32.3962 23.3379 35.0078 25.9496 35.0078 29.1712C35.0078 32.3929 32.3962 35.0046 29.1745 35.0046ZM10.8411 16.6712C7.6195 16.6712 5.00781 14.0596 5.00781 10.838C5.00781 7.61631 7.6195 5.00464 10.8411 5.00464C14.0628 5.00464 16.6745 7.61631 16.6745 10.838C16.6745 14.0596 14.0628 16.6712 10.8411 16.6712ZM31.793 5.86251L34.15 8.21952L8.22271 34.1467L5.86568 31.7897L31.793 5.86251Z" fill="#FAFAFA"/>
</svg>
