<svg width="40" height="40" viewBox="0 0 40 40" fill="none" xmlns="http://www.w3.org/2000/svg">
<path d="M23.4268 21.6664C20.7311 23.4576 18.9533 26.5204 18.9531 29.9994C18.9531 32.5609 19.9172 34.8971 21.501 36.6664H5V31.6664C5.00015 26.1437 9.47725 21.6664 15 21.6664H23.4268ZM30.6211 28.3334H35.6201V31.6674H30.6211V36.6664H27.2871V31.6674H22.2871V28.3334H27.2871V23.3334H30.6211V28.3334ZM20 3.3324C24.1421 3.3324 27.4999 6.69032 27.5 10.8324C27.5 14.9745 24.1421 18.3324 20 18.3324C15.8579 18.3324 12.5 14.9745 12.5 10.8324C12.5001 6.69032 15.8579 3.3324 20 3.3324Z" fill="#FAFAFA"/>
</svg>
