<svg width="20" height="20" viewBox="0 0 20 20" fill="none" xmlns="http://www.w3.org/2000/svg">
<path d="M9.2749 3.59277C6.07243 3.96078 3.58583 6.68042 3.58545 9.98145C3.58545 13.5338 6.46478 16.4139 10.0171 16.4141C13.3206 16.414 16.0415 13.9236 16.4067 10.7178H18.0815C17.7098 14.8459 14.242 18.081 10.0171 18.0811L9.60107 18.0703C5.32162 17.8536 1.91846 14.3147 1.91846 9.98145C1.91884 5.7592 5.15027 2.29387 9.2749 1.91895V3.59277ZM16.4331 2.76367C16.893 2.76387 17.2669 3.13676 17.2671 3.59668V8.34082H15.6001V5.6084L10.0913 11.1172L8.9126 9.93848L9.50244 9.34961L14.4224 4.42969H11.7007V2.76367H16.4331Z" fill="#070808"/>
</svg>
