<svg xmlns="http://www.w3.org/2000/svg" width="900" height="520" viewBox="0 0 900 520" role="img" aria-label="Start trading card">
  <defs>
    <linearGradient id="bg" x1="0" y1="0" x2="1" y2="1">
      <stop stop-color="#030813"/>
      <stop offset="1" stop-color="#071F38"/>
    </linearGradient>
    <linearGradient id="line" x1="142" y1="330" x2="752" y2="170" gradientUnits="userSpaceOnUse">
      <stop stop-color="#00FFD6"/>
      <stop offset="1" stop-color="#1495FF"/>
    </linearGradient>
  </defs>
  <rect width="900" height="520" rx="42" fill="url(#bg)"/>
  <circle cx="760" cy="128" r="148" fill="#00B4D8" opacity=".13"/>
  <rect x="104" y="98" width="692" height="324" rx="34" fill="#071827" stroke="#143F65" stroke-width="2"/>
  <path d="M156 344h590M156 274h590M156 204h590" stroke="#1B3D58" stroke-width="4"/>
  <path d="M172 336c70-45 117-30 166-82 58-61 98-42 148-12 82 50 122-88 242-76" fill="none" stroke="url(#line)" stroke-width="18" stroke-linecap="round" stroke-linejoin="round"/>
  <circle cx="174" cy="336" r="14" fill="#00FFD6"/>
  <circle cx="728" cy="166" r="18" fill="#1495FF"/>
  <rect x="162" y="134" width="126" height="34" rx="17" fill="#0B2E49"/>
  <rect x="316" y="134" width="88" height="34" rx="17" fill="#00B4D8"/>
  <rect x="430" y="134" width="88" height="34" rx="17" fill="#0B2E49"/>
</svg>
